# xmcd CD database file
#
# Track frame offsets:
#	182
#	49552
#	85912
#	142110
#	157912
#	181320
#	195590
#	231892
#
# Disc length: 3227 seconds
#
# Revision: 0
# Processed by: cddbd v1.5.2PL0 Copyright (c) Steve Scherf et al.
# Submitted via: CDex 1.70beta2
#
DISCID=610c9908
DTITLE=Jimi Hendrix - Sunshine of your Love
DYEAR=2007
DGENRE=Jazz
TTITLE0=Red House
TTITLE1=Wake Up This Morning And You Find Yourself Dead
TTITLE2=Bleeding Heart
TTITLE3=Morrisons Lament
TTITLE4=Tomorrow Never Knows
TTITLE5=Uranus Rock
TTITLE6=Outside Woman Blues
TTITLE7=Sunshine Of Your Love
EXTD=YEAR: 2007
EXTT0=
EXTT1=
EXTT2=
EXTT3=
EXTT4=
EXTT5=
EXTT6=
EXTT7=
PLAYORDER=
